# xmcd CD database file
#
# Track frame offsets:
#	150
#	19271
#	23009
#	47524
#	63515
#	74922
#	94510
#	110551
#	121405
#	122567
#	140440
#	159889
#	167563
#	186267
#	190023
#	206827
#	225441
#	242931
#
# Disc length: 3533 seconds
#
# Revision: 0
# Processed by: cddbd v1.5.2PL0 Copyright (c) Steve Scherf et al.
# Submitted via: CDex 1.70beta2
#
DISCID=f70dcb12
DTITLE=Mardi Gras BB - Super Smell
DYEAR=2001
DGENRE=Jazz
TTITLE0=Psychoflute
TTITLE1=Tijuana 65
TTITLE2=Dreamtime in Memphis
TTITLE3=Erotic city
TTITLE4=Baby elephant walk
TTITLE5=The cape and the crown (Sha la la)
TTITLE6=One more try
TTITLE7=Under control
TTITLE8=No 9
TTITLE9=Meeting Isaac (for your love)
TTITLE10=Glass tiger
TTITLE11=Riders on the storm
TTITLE12=Draw me something, Mr Jack Brewer
TTITLE13=Sphincterludi
TTITLE14=Let it shine
TTITLE15=Down Down Down (voodoo club version)
TTITLE16=Also sprach Zarathustra (variation on the theme of 2001)
TTITLE17=Psychoflute (well wicked remix)
EXTD=YEAR: 2001
EXTT0=
EXTT1=
EXTT2=
EXTT3=
EXTT4=
EXTT5=
EXTT6=
EXTT7=
EXTT8=
EXTT9=
EXTT10=
EXTT11=
EXTT12=
EXTT13=
EXTT14=
EXTT15=
EXTT16=
EXTT17=
PLAYORDER=
